# xmcd
#
# Track frame offsets:
#	150
#	3546
#	18764
#	41062
#	52146
#	55413
#	76867
#	97751
#	110161
#	134673
#	135875
#	151680
#	173915
#	190982
#	200022
#
# Disc length: 2765 seconds
#
# Revision: 0
# Processed by: cddbd v1.5.1PL2 Copyright (c) Steve Scherf et al.
# Submitted via: EasyCDDAExtractor 8.1.2.3
#
DISCID=c50acb0f
DTITLE=Various Artist - Cheitan
DYEAR=2006
DGENRE=Bande originale
TTITLE0=DJ Mehdi - Intro
TTITLE1=Sheitan - Bâtards de barbares
TTITLE2=Rim'K - Bucarest
TTITLE3=Gnawa Diffusion - Ombre-elles
TTITLE4=TTC - Dans le club
TTITLE5=Oxmo Puccino - Pucc' Fiction
TTITLE6=La Caution - Comme un sampler
TTITLE7=Nguyên Lê and Mai Lan - Découverte maison
TTITLE8=Mai Lan - Arrêt de souffle
TTITLE9=Hakim Chapoori and Nicolas Lefur - Saïgon remix
TTITLE10=La Caution - Pilotes automatiques
TTITLE11=Oxmo Puccino - La m-èche
TTITLE12=Mai Lan - Gentiment je t'immole
TTITLE13=Nguyên Lê and Mai Lan - Serpent
TTITLE14=Nguyên Lê and Mai Lan - Berceuse
EXTD=
EXTT0=
EXTT1=
EXTT2=
EXTT3=
EXTT4=
EXTT5=
EXTT6=
EXTT7=
EXTT8=
EXTT9=
EXTT10=
EXTT11=
EXTT12=
EXTT13=
EXTT14=
PLAYORDER=
